<?xml version="1.0" encoding="UTF-8"?>
<!DOCTYPE svg PUBLIC "-//W3C//DTD SVG 1.1//EN" "http://www.w3.org/Graphics/SVG/1.1/DTD/svg11.dtd">
<!-- Creator: CorelDRAW 2018 (64-Bit) -->
<svg xmlns="http://www.w3.org/2000/svg" xml:space="preserve" width="5.48996in" height="5.48996in" version="1.1" style="shape-rendering:geometricPrecision; text-rendering:geometricPrecision; image-rendering:optimizeQuality; fill-rule:evenodd; clip-rule:evenodd"
viewBox="0 0 548996 548996"
 xmlns:xlink="http://www.w3.org/1999/xlink">
 <defs>
  <style type="text/css">
   <![CDATA[
    .fil1 {fill:#99CC66}
    .fil0 {fill:#E6E6E6}
    .fil2 {fill:#333333;fill-rule:nonzero}
   ]]>
  </style>
 </defs>
 <g id="Layer_x0020_1">
  <metadata id="CorelCorpID_0Corel-Layer"/>
  <path class="fil0" d="M274496 0c75798,0 144427,30727 194100,80400 49673,49673 80400,118302 80400,194100 0,75798 -30727,144422 -80400,194096 -49673,49673 -118302,80400 -194100,80400 -75798,0 -144422,-30727 -194096,-80400 -49673,-49673 -80400,-118302 -80400,-194096 0,-75798 30727,-144427 80400,-194100 49673,-49673 118297,-80400 194096,-80400z"/>
  <g id="_2198396766288">
   <path class="fil1" d="M205618 362645c0,-28399 -23022,-51421 -51426,-51421 -28399,0 -51422,23022 -51422,51421 0,28404 23023,51426 51422,51426 28404,0 51426,-23022 51426,-51426z"/>
   <path class="fil1" d="M325183 362645c0,-28399 -23022,-51421 -51422,-51421 -28403,0 -51426,23022 -51426,51421 0,28404 23023,51426 51426,51426 28399,0 51422,-23022 51422,-51426z"/>
   <path class="fil1" d="M446230 362645c0,-28399 -23023,-51421 -51422,-51421 -28404,0 -51426,23022 -51426,51421 0,28404 23022,51426 51426,51426 28399,0 51422,-23022 51422,-51426z"/>
   <path class="fil1" d="M446230 242020c0,-28399 -23023,-51421 -51422,-51421 -28404,0 -51426,23022 -51426,51421 0,28404 23022,51426 51426,51426 28399,0 51422,-23022 51422,-51426z"/>
   <path class="fil1" d="M325396 121291c0,-28399 -23023,-51422 -51426,-51422 -28399,0 -51422,23022 -51422,51422 0,28403 23022,51426 51422,51426 28403,0 51426,-23023 51426,-51426z"/>
   <path class="fil2" d="M274496 0c75798,0 144427,30727 194100,80400 49673,49673 80400,118302 80400,194100 0,75798 -30727,144422 -80400,194096 -49673,49673 -118302,80400 -194100,80400 -75798,0 -144422,-30727 -194096,-80400 -49673,-49673 -80400,-118302 -80400,-194096 0,-75798 30727,-144427 80400,-194100 49673,-49673 118297,-80400 194096,-80400zm172396 102105c-44116,-44116 -105072,-71405 -172396,-71405 -67324,0 -128275,27289 -172391,71405 -44116,44115 -71405,105071 -71405,172395 0,67320 27289,128275 71405,172391 44116,44116 105067,71405 172391,71405 67324,0 128280,-27289 172396,-71405 44115,-44116 71405,-105067 71405,-172391 0,-67324 -27289,-128280 -71405,-172395z"/>
  </g>
 </g>
</svg>
